PathFileType	4	(X/Y/Z)	C:/Users/opensim2020/Desktop/walking_exp_matlab/subject02_walking14_straight_04.trc	
DataRate	CameraRate	NumFrames	NumMarkers	Units	OrigDataRate	OrigDataStartFrame	OrigNumFrames	
100.00	100.00	7	41	mm	100.00	1746	137	
Frame#	Time	LFHD			RFHD			LBHD			RBHD			C7			T10			CLAV			STRN			RBAK			LSHO			LUPA			LELB			LFRM			LWRA			LWRB			LFIN			RSHO			RUPA			RELB			RFRM			RWRA			RWRB			RFIN			LASI			RASI			LPSI			RPSI			LTHI			LKNE			LTIB			LANK			LHEE			LTOE			RTHI			RKNE			RTIB			RANK			RHEE			RTOE			*39			*40			
		X1	Y1	Z1	X2	Y2	Z2	X3	Y3	Z3	X4	Y4	Z4	X5	Y5	Z5	X6	Y6	Z6	X7	Y7	Z7	X8	Y8	Z8	X9	Y9	Z9	X10	Y10	Z10	X11	Y11	Z11	X12	Y12	Z12	X13	Y13	Z13	X14	Y14	Z14	X15	Y15	Z15	X16	Y16	Z16	X17	Y17	Z17	X18	Y18	Z18	X19	Y19	Z19	X20	Y20	Z20	X21	Y21	Z21	X22	Y22	Z22	X23	Y23	Z23	X24	Y24	Z24	X25	Y25	Z25	X26	Y26	Z26	X27	Y27	Z27	X28	Y28	Z28	X29	Y29	Z29	X30	Y30	Z30	X31	Y31	Z31	X32	Y32	Z32	X33	Y33	Z33	X34	Y34	Z34	X35	Y35	Z35	X36	Y36	Z36	X37	Y37	Z37	X38	Y38	Z38	X39	Y39	Z39	X40	Y40	Z40	X41	Y41	Z41	

69	0.680	-1019.86090	-15.70770	1714.59338	-1163.62231	-13.15014	1704.06750	-1012.64825	111.79440	1635.10254	-1156.68201	126.99038	1622.92297	-1081.12952	160.68556	1489.00342	-1092.64258	187.08028	1211.68091	-1085.61804	14.52556	1434.78906	-1102.17371	-55.26602	1270.82532	-1138.48364	206.00838	1308.13843	-909.27277	69.83544	1468.64990	-822.20557	36.31752	1275.45203	-804.45654	-10.10362	1138.31506	-845.14709	-112.00484	1058.67908	-937.92523	-210.51187	1033.24036	-895.90717	-203.98761	996.03772	-920.02258	-263.04160	983.62689	-1274.21338	107.21194	1461.61902	-1351.56580	165.58519	1278.12109	-1374.56824	174.30283	1135.85156	-1406.37415	176.00209	1019.73999	-1407.25635	155.02312	883.82672	-1427.63928	207.20815	894.87292	-1439.73059	190.43404	824.14197	-983.08990	-45.79360	946.14178	-1227.11145	-61.47979	964.01788	-1058.21326	157.96402	996.88892	-1176.19409	158.20589	1009.81482	-920.22815	71.64851	638.09045	-934.25244	127.56622	459.40643	-940.57300	289.98605	363.89954	-970.99512	445.27048	208.90549	-1029.21289	474.14575	216.67740	-950.20172	401.61249	58.14853	-1312.16577	-65.36522	673.08679	-1273.19482	-116.07262	470.32010	-1290.92151	-89.26529	283.52917	-1264.20984	-73.35211	91.50777	-1213.83997	-33.14211	39.08596	-1269.27551	-226.12599	37.31104	-1104.03906	90.14825	1781.26611	-3360.40088	2845.25342	1034.20300 
70	0.690	-1021.50665	-29.49972	1717.04102	-1165.04993	-26.94655	1706.10706	-1014.54089	98.41028	1637.50452	-1158.33862	113.48793	1625.41516	-1083.40637	147.59595	1491.42920	-1095.48645	173.58168	1213.92542	-1086.79517	1.43750	1437.25159	-1102.98438	-68.80790	1273.27283	-1140.70618	192.16273	1310.23486	-910.79706	58.12588	1470.74561	-824.39471	26.31749	1276.77710	-807.04883	-18.48652	1139.27966	-845.76984	-119.12785	1056.30811	-936.21967	-218.81627	1027.35547	-893.87622	-209.89912	990.20782	-916.42932	-269.03336	976.32227	-1275.72791	93.20224	1464.41064	-1354.73352	148.99051	1280.47278	-1377.89795	155.59015	1137.97888	-1410.09180	155.42320	1021.92487	-1410.93787	132.58621	886.31934	-1431.69873	184.68254	896.69867	-1443.93188	166.73248	826.17255	-986.00769	-59.28838	947.28845	-1229.90393	-75.33322	966.78223	-1060.27063	144.37775	999.07330	-1178.17456	144.63324	1011.71381	-922.80005	49.47664	637.01886	-935.88501	99.93983	458.09805	-942.78326	263.32141	366.35471	-976.13318	421.05612	215.53432	-1035.46912	449.75342	221.77910	-950.23816	378.42233	65.65410	-1314.08496	-79.53003	675.89343	-1274.88757	-120.65620	469.55020	-1291.25415	-91.07180	283.17657	-1264.19373	-73.35368	91.64510	-1213.86218	-32.98779	39.11978	-1269.21899	-225.96924	37.30810	-1105.83276	76.21442	1783.84375	-3357.39258	2845.92310	1034.32251 
71	0.700	-1022.61987	-42.77724	1719.18140	-1166.32422	-40.77331	1708.27002	-1016.28735	84.96428	1640.57373	-1159.89429	99.97176	1628.15051	-1085.34119	134.51744	1494.18323	-1098.29248	160.25682	1216.45081	-1087.62097	-11.76423	1440.03540	-1103.45581	-82.11068	1275.92017	-1143.13867	179.48468	1313.04529	-912.12952	46.59651	1473.13403	-826.72693	16.16659	1278.35779	-809.70740	-26.94748	1140.43738	-845.91217	-125.14223	1053.93738	-933.97626	-225.87367	1020.68744	-891.50146	-214.92311	984.48163	-912.56696	-274.17209	968.23535	-1277.27332	78.82915	1467.48560	-1356.83118	132.00983	1282.86292	-1381.46851	136.63785	1140.57007	-1413.65918	134.44029	1024.55554	-1414.20032	109.70020	889.13177	-1435.83252	161.50226	899.03729	-1448.47070	142.21547	829.06720	-988.50580	-72.72531	948.88287	-1231.95105	-88.87749	969.19995	-1062.59009	131.35281	1001.77948	-1180.23596	131.45689	1014.04193	-925.00507	28.32024	637.92279	-938.12549	72.47224	457.92880	-946.38043	236.35138	369.39700	-981.16516	395.34756	220.64143	-1041.04724	424.10428	225.53339	-950.72961	352.18356	72.01661	-1315.13367	-90.34968	677.82709	-1276.29993	-125.30051	469.13556	-1292.27209	-93.04105	283.03543	-1264.26074	-73.47558	91.76449	-1213.92651	-32.80120	39.18015	-1269.20703	-225.85597	37.35049	-1107.43188	62.17271	1786.32935	-3360.27734	2845.20435	1034.16772 
72	0.710	-1023.85968	-56.45613	1721.76770	-1167.66174	-54.76717	1710.44763	-1017.42419	72.00674	1643.90454	-1161.13293	86.30440	1630.95264	-1087.32190	121.18024	1497.18250	-1100.86279	147.11992	1219.28088	-1088.32861	-24.47235	1442.73193	-1103.79102	-94.06362	1278.41113	-1146.64246	166.14873	1316.18201	-913.31610	35.25094	1475.74854	-828.54285	6.67268	1280.42468	-812.42798	-35.13453	1141.84241	-845.90100	-131.53633	1051.72253	-931.01379	-232.33897	1013.57123	-888.93231	-219.23564	978.55859	-908.23547	-278.24545	959.53418	-1278.64429	63.75325	1470.66504	-1359.27429	114.78641	1285.72437	-1384.27356	117.37354	1143.23535	-1416.95813	113.01405	1027.41870	-1417.67822	86.27665	892.47858	-1439.56213	137.78537	901.41998	-1452.50757	117.27143	832.09619	-989.71075	-85.44181	951.16846	-1233.52698	-102.20657	972.03400	-1065.04492	118.81362	1004.89166	-1182.37878	118.65154	1016.69299	-927.52899	7.16219	639.82477	-940.99481	45.17188	459.22949	-950.65546	208.58247	372.07056	-985.73132	368.22696	224.13356	-1046.08276	397.34921	227.99348	-951.92358	323.92142	77.24803	-1315.89417	-98.21329	678.48492	-1277.14539	-130.31726	469.00293	-1293.57825	-95.31541	283.09061	-1264.38562	-73.57996	91.89264	-1213.97778	-32.67692	39.20969	-1269.28064	-225.73750	37.38689	-1108.93176	48.22317	1789.03467	-3357.43628	2845.98511	1034.29382 
73	0.720	-1025.00110	-70.03594	1724.50891	-1168.68213	-68.62789	1712.90283	-1018.86426	58.71282	1647.21301	-1162.42993	72.81286	1634.08118	-1088.96997	108.24213	1500.42517	-1103.28967	134.17505	1222.26025	-1088.77039	-37.55537	1445.71094	-1103.86658	-106.97194	1281.15894	-1149.58484	152.61385	1319.46570	-914.35315	23.91160	1478.50342	-830.71838	-3.43220	1282.22729	-815.03595	-43.12124	1143.38074	-845.72943	-136.87894	1049.60999	-928.03339	-238.14525	1006.30237	-885.87842	-222.72856	972.17334	-903.51355	-281.20670	950.81848	-1280.06738	48.49952	1474.33276	-1361.62573	97.25127	1288.84216	-1387.68542	97.98608	1146.39038	-1419.81958	91.23843	1030.46570	-1420.47156	62.39801	896.03363	-1443.00122	113.72872	904.25702	-1455.68518	91.87831	835.21484	-989.90662	-97.46540	954.33026	-1234.50305	-115.49488	974.68951	-1067.79138	106.49610	1008.17670	-1184.69775	105.81927	1019.49585	-929.99078	-13.44784	641.93542	-944.23572	18.04934	461.82593	-954.81696	180.39029	374.28729	-990.15002	340.25067	226.22124	-1050.92810	369.69943	228.96359	-953.94696	293.92221	81.16185	-1316.82654	-105.53112	678.49774	-1277.85083	-135.06834	468.86877	-1294.70044	-97.72488	283.28003	-1264.50952	-73.70893	91.96667	-1214.11548	-32.48831	39.29479	-1269.34814	-225.59778	37.44260	-1110.53210	33.94268	1792.11353	-3357.47827	2845.92603	1034.33862 
74	0.730	-1026.22290	-83.94890	1727.01086	-1169.51465	-82.62173	1715.28479	-1019.85406	45.31406	1650.26648	-1163.64966	59.16388	1636.86963	-1090.74426	95.18014	1503.70227	-1105.61707	121.36579	1225.31311	-1089.07471	-50.45912	1448.62695	-1103.83167	-119.68959	1283.91992	-1152.43665	139.22206	1322.59680	-915.44116	12.82916	1481.21790	-832.47827	-12.85577	1284.42090	-817.62634	-51.17942	1144.87268	-845.13312	-141.73378	1047.31702	-924.59552	-243.26509	998.89252	-882.49835	-224.85059	965.49231	-898.42310	-283.10516	941.85333	-1281.22876	32.97269	1478.25293	-1364.41223	79.40082	1292.31873	-1390.28406	78.27963	1149.52344	-1422.89880	69.18343	1033.88196	-1423.46802	37.82533	900.12488	-1446.45654	89.12507	907.36835	-1459.54541	65.32180	839.12122	-989.30389	-108.81696	958.33301	-1235.06970	-128.63672	977.31458	-1070.75061	94.47318	1011.44153	-1187.17322	92.98758	1022.28394	-932.40204	-33.67675	644.47015	-947.45441	-8.95513	465.11972	-958.78766	152.30107	376.26535	-994.59094	311.29178	226.93549	-1055.13794	341.53476	228.50082	-957.02771	261.69864	83.82963	-1317.68701	-112.55812	677.90436	-1278.79712	-138.87195	468.66840	-1295.51086	-100.02937	283.40945	-1264.73022	-73.83734	92.10368	-1214.20740	-32.34151	39.32189	-1269.43152	-225.48068	37.48758	-1111.69238	20.03518	1794.77087	-3360.44067	2845.25146	1034.09912 
75	0.740	-1026.91968	-97.51461	1729.75732	-1170.13867	-96.65202	1717.56543	-1020.90985	31.82925	1653.48242	-1164.73730	45.62474	1639.69067	-1092.38782	82.05087	1506.89246	-1107.90173	108.58739	1228.36267	-1089.33142	-63.30492	1451.45605	-1103.69116	-132.40002	1286.56372	-1155.83130	125.91461	1326.54468	-916.36108	1.80978	1483.93103	-834.29010	-22.73785	1286.20642	-819.80573	-58.76202	1146.56165	-844.65503	-147.05031	1045.11853	-920.81573	-247.64452	991.13110	-878.88446	-226.82578	959.66144	-892.87122	-284.26440	932.82751	-1282.52002	17.40822	1482.07092	-1366.92615	61.34522	1295.76636	-1393.23865	58.46735	1153.01135	-1425.38892	46.67612	1037.37744	-1426.08960	13.06106	904.51740	-1449.60974	64.18375	910.57745	-1462.98059	38.62769	843.51965	-988.31116	-120.25957	962.72498	-1235.29663	-141.63797	979.85022	-1073.89526	82.93271	1014.64081	-1189.75122	80.76360	1025.18286	-934.74554	-53.96453	647.60638	-950.51556	-35.30872	468.59430	-962.71631	124.44861	378.22006	-998.94604	281.48734	226.14651	-1059.61682	312.28864	226.46964	-960.67542	226.98239	85.30331	-1318.01306	-118.82204	677.06140	-1279.48962	-141.79651	468.31635	-1296.21240	-102.00853	283.45236	-1264.77136	-74.00761	92.16428	-1214.33301	-32.12930	39.41481	-1269.48047	-225.33987	37.54260	-1113.11853	5.80035	1797.81067	-3357.49268	2845.94189	1034.34766 
